<svg xmlns="http://www.w3.org/2000/svg" viewBox="0 0 1024 1024"><defs><linearGradient id="mela-icon-grad" x1="0" y1="0" x2="0" y2="1"><stop offset="0" stop-color="#f9920f"/><stop offset="1" stop-color="#964900"/></linearGradient></defs><rect width="1024" height="1024" fill="url(#mela-icon-grad)"/><svg x="112" y="360" width="800" height="304" viewBox="-61.0 -1000.0 2671.0 1065.0" preserveAspectRatio="xMidYMid meet"><path transform="scale(1,-1)" fill="#fff8f5" d="M163.0 74Q163.0 105 169.5 153.5Q176.0 202 191.0 287Q217.0 444 232.0 559Q241.0 631 241.0 679Q241.0 724 208.0 724Q182.0 724 145.5 697.5Q109.0 671 65.0 613Q51.0 594 34.0 594Q20.0 594 9.5 607.5Q-1.0 621 -1.0 638Q-1.0 654 5.5 670.5Q12.0 687 27.0 708Q75.0 775 134.0 811.5Q193.0 848 252.0 848Q307.0 848 336.5 813.0Q366.0 778 366.0 711Q366.0 684 361.0 647.5Q356.0 611 352.0 588.0Q348.0 565 346.0 556Q403.0 719 474.0 783.5Q545.0 848 630.0 848Q695.0 848 732.5 802.0Q770.0 756 770.0 672Q770.0 639 761.0 590Q811.0 728 878.0 788.0Q945.0 848 1032.0 848Q1102.0 848 1139.5 803.0Q1177.0 758 1177.0 677Q1177.0 633 1164.0 570L1103.0 284Q1093.0 234 1093.0 198Q1093.0 156 1112.5 135.0Q1132.0 114 1167.0 114Q1200.0 114 1231.5 136.0Q1263.0 158 1306.0 209Q1318.0 223 1333.0 223Q1346.0 223 1353.5 211.0Q1361.0 199 1361.0 178Q1361.0 139 1342.0 116Q1290.0 53 1239.0 24.0Q1188.0 -5 1132.0 -5Q1047.0 -5 999.0 45.5Q951.0 96 951.0 181Q951.0 240 975.0 352L1015.0 535Q1017.0 544 1022.0 567.0Q1027.0 590 1030.0 610.5Q1033.0 631 1033.0 651Q1033.0 686 1019.5 703.5Q1006.0 721 981.0 721Q934.0 721 882.5 660.5Q831.0 600 784.5 460.0Q738.0 320 709.0 96Q702.0 36 684.5 15.5Q667.0 -5 628.0 -5Q594.0 -5 578.5 11.0Q563.0 27 563.0 71Q563.0 112 574.0 178.5Q585.0 245 602.0 335Q648.0 577 648.0 647Q648.0 685 633.5 703.0Q619.0 721 590.0 721Q541.0 721 489.0 665.5Q437.0 610 387.5 468.5Q338.0 327 305.0 86Q298.0 35 284.5 15.0Q271.0 -5 232.0 -5Q195.0 -5 179.0 11.5Q163.0 28 163.0 74ZM1754.0 178Q1754.0 138 1735.0 116Q1698.0 71 1630.5 33.0Q1563.0 -5 1486.0 -5Q1381.0 -5 1323.0 52.0Q1265.0 109 1265.0 208Q1265.0 277 1294.0 336.5Q1323.0 396 1374.5 431.0Q1426.0 466 1491.0 466Q1549.0 466 1584.0 431.5Q1619.0 397 1619.0 338Q1619.0 269 1569.5 219.5Q1520.0 170 1402.0 141Q1427.0 95 1497.0 95Q1542.0 95 1599.5 126.5Q1657.0 158 1699.0 209Q1711.0 223 1726.0 223Q1739.0 223 1746.5 211.0Q1754.0 199 1754.0 178ZM1386.0 221V219Q1445.0 233 1479.0 261.0Q1513.0 289 1513.0 326Q1513.0 345 1502.5 356.5Q1492.0 368 1474.0 368Q1437.0 368 1411.5 325.0Q1386.0 282 1386.0 221ZM2080.0 178Q2080.0 138 2061.0 116Q2018.0 63 1967.5 29.0Q1917.0 -5 1853.0 -5Q1765.0 -5 1722.5 75.0Q1680.0 155 1680.0 282Q1680.0 404 1711.5 560.0Q1743.0 716 1804.5 828.0Q1866.0 940 1951.0 940Q1999.0 940 2026.5 895.5Q2054.0 851 2054.0 768Q2054.0 649 1988.0 492.0Q1922.0 335 1809.0 181Q1816.0 140 1832.0 122.5Q1848.0 105 1874.0 105Q1915.0 105 1946.0 128.5Q1977.0 152 2025.0 209Q2037.0 223 2052.0 223Q2065.0 223 2072.5 211.0Q2080.0 199 2080.0 178ZM1802.0 316Q1873.0 433 1915.0 550.5Q1957.0 668 1957.0 765Q1957.0 841 1929.0 841Q1906.0 841 1877.0 758.0Q1848.0 675 1826.0 552.0Q1804.0 429 1802.0 316ZM1986.0 158Q1986.0 238 2023.0 309.5Q2060.0 381 2121.5 424.5Q2183.0 468 2252.0 468Q2274.0 468 2281.5 459.5Q2289.0 451 2294.0 429Q2315.0 433 2338.0 433Q2387.0 433 2387.0 398Q2387.0 377 2372.0 298Q2349.0 183 2349.0 138Q2349.0 123 2356.5 114.0Q2364.0 105 2376.0 105Q2395.0 105 2422.0 129.5Q2449.0 154 2495.0 209Q2507.0 223 2522.0 223Q2535.0 223 2542.5 211.0Q2550.0 199 2550.0 178Q2550.0 138 2531.0 116Q2490.0 65 2444.0 30.0Q2398.0 -5 2355.0 -5Q2322.0 -5 2294.5 17.5Q2267.0 40 2253.0 79Q2201.0 -5 2122.0 -5Q2060.0 -5 2023.0 40.0Q1986.0 85 1986.0 158ZM2229.0 191 2266.0 375Q2224.0 374 2188.5 343.5Q2153.0 313 2132.0 263.0Q2111.0 213 2111.0 157Q2111.0 126 2123.5 111.0Q2136.0 96 2158.0 96Q2180.0 96 2200.0 122.0Q2220.0 148 2229.0 191Z"/></svg></svg>